<mxfile host="app.diagrams.net" agent="Mozilla/5.0 (Windows NT 10.0; Win64; x64) AppleWebKit/537.36 (KHTML, like Gecko) Chrome/138.0.0.0 Safari/537.36 Edg/138.0.0.0" version="27.2.0">
  <diagram name="Page-1" id="1VJ7KjKDs_0ZMosXBgvs">
    <mxGraphModel dx="1876" dy="612" grid="1" gridSize="10" guides="1" tooltips="1" connect="1" arrows="1" fold="1" page="1" pageScale="1" pageWidth="850" pageHeight="1100" math="0" shadow="0">
      <root>
        <mxCell id="0" />
        <mxCell id="1" parent="0" />
        <mxCell id="3abnYxzULvc83pKUkviv-35" value="" style="edgeStyle=orthogonalEdgeStyle;rounded=0;orthogonalLoop=1;jettySize=auto;html=1;" parent="1" source="wrTLbTTsH6VFI9BlZv4b-9" target="Nsz1IoEC6ToBLyyu27T0-3" edge="1">
          <mxGeometry relative="1" as="geometry" />
        </mxCell>
        <mxCell id="wrTLbTTsH6VFI9BlZv4b-9" value="Dim_Attendance&lt;div&gt;AttendanceID(PK)&lt;/div&gt;&lt;div&gt;employee_id&lt;/div&gt;&lt;div&gt;AttendanceDate&lt;/div&gt;&lt;div&gt;scheduled_start_time&lt;/div&gt;&lt;div&gt;actual_start_time&lt;/div&gt;&lt;div&gt;late_minutes&lt;/div&gt;&lt;div&gt;attendance_status&lt;/div&gt;&lt;div&gt;absence_reason&lt;/div&gt;" style="whiteSpace=wrap;html=1;align=center;" parent="1" vertex="1">
          <mxGeometry x="1290" y="540" width="150" height="160" as="geometry" />
        </mxCell>
        <mxCell id="3abnYxzULvc83pKUkviv-29" style="edgeStyle=orthogonalEdgeStyle;rounded=0;orthogonalLoop=1;jettySize=auto;html=1;entryX=0;entryY=0.5;entryDx=0;entryDy=0;" parent="1" source="wrTLbTTsH6VFI9BlZv4b-11" target="Nsz1IoEC6ToBLyyu27T0-3" edge="1">
          <mxGeometry relative="1" as="geometry" />
        </mxCell>
        <mxCell id="wrTLbTTsH6VFI9BlZv4b-11" value="Dim_EmployeeInfo&lt;div&gt;&lt;div&gt;EmployeeID(PK)&lt;/div&gt;&lt;div&gt;First_Name&lt;/div&gt;&lt;div&gt;Last_Name&lt;/div&gt;&lt;div&gt;Department&lt;/div&gt;&lt;div&gt;Job_Title&lt;/div&gt;&lt;div&gt;Hire_Date&lt;/div&gt;&lt;div&gt;Salary_Grade&lt;/div&gt;&lt;div&gt;Start_Date&lt;/div&gt;&lt;div&gt;End_Date&lt;/div&gt;&lt;div&gt;Is_Current&lt;/div&gt;&lt;/div&gt;" style="whiteSpace=wrap;html=1;align=center;" parent="1" vertex="1">
          <mxGeometry x="1100" y="460" width="130" height="200" as="geometry" />
        </mxCell>
        <mxCell id="Nsz1IoEC6ToBLyyu27T0-1" value="Fact_OrderSummery&lt;div&gt;ProductKey&lt;/div&gt;&lt;div&gt;CustomerKey&lt;/div&gt;&lt;div&gt;SalesKey&lt;/div&gt;&lt;div&gt;DateKey&lt;/div&gt;&lt;div&gt;PromotionsKey&lt;/div&gt;&lt;div&gt;ReturnKey&lt;/div&gt;" style="whiteSpace=wrap;html=1;align=center;" parent="1" vertex="1">
          <mxGeometry x="150" y="800" width="130" height="160" as="geometry" />
        </mxCell>
        <mxCell id="Nsz1IoEC6ToBLyyu27T0-2" value="Fact_InventorySummery&lt;div&gt;&lt;div&gt;&amp;nbsp; SupplierKey&lt;/div&gt;&lt;div&gt;&lt;span style=&quot;white-space: normal;&quot;&gt;ProductKey&lt;/span&gt;&lt;/div&gt;&lt;div&gt;&lt;span style=&quot;white-space: normal;&quot;&gt;DateKey&lt;/span&gt;&lt;/div&gt;&lt;div&gt;&lt;span style=&quot;white-space: normal;&quot;&gt;StockLevel&lt;/span&gt;&lt;/div&gt;&lt;div&gt;&lt;span style=&quot;white-space: normal;&quot;&gt;&lt;span style=&quot;white-space:pre&quot;&gt;&#x9;&lt;/span&gt;RestockAmount&lt;/span&gt;&lt;/div&gt;&lt;/div&gt;" style="whiteSpace=wrap;html=1;align=center;" parent="1" vertex="1">
          <mxGeometry x="770" y="740" width="150" height="190" as="geometry" />
        </mxCell>
        <mxCell id="Nsz1IoEC6ToBLyyu27T0-3" value="Fact_Employee performance&lt;div&gt;PerformanceMatrixKey&lt;/div&gt;&lt;div&gt;AttendanceKey&lt;/div&gt;&lt;div&gt;EmployeeInfoKey&lt;/div&gt;&lt;div&gt;DateKey&lt;/div&gt;&lt;div&gt;KPI_Score&lt;/div&gt;" style="whiteSpace=wrap;html=1;align=center;" parent="1" vertex="1">
          <mxGeometry x="1300" y="780" width="140" height="120" as="geometry" />
        </mxCell>
        <mxCell id="3abnYxzULvc83pKUkviv-3" style="edgeStyle=orthogonalEdgeStyle;rounded=0;orthogonalLoop=1;jettySize=auto;html=1;exitX=0.5;exitY=1;exitDx=0;exitDy=0;" parent="1" source="3abnYxzULvc83pKUkviv-1" target="Nsz1IoEC6ToBLyyu27T0-1" edge="1">
          <mxGeometry relative="1" as="geometry">
            <Array as="points">
              <mxPoint y="780" />
              <mxPoint x="130" y="780" />
              <mxPoint x="130" y="820" />
            </Array>
          </mxGeometry>
        </mxCell>
        <mxCell id="3abnYxzULvc83pKUkviv-37" style="edgeStyle=orthogonalEdgeStyle;rounded=0;orthogonalLoop=1;jettySize=auto;html=1;" parent="1" source="3abnYxzULvc83pKUkviv-1" target="3abnYxzULvc83pKUkviv-19" edge="1">
          <mxGeometry relative="1" as="geometry">
            <Array as="points">
              <mxPoint x="-100" y="540" />
              <mxPoint x="-100" y="650" />
              <mxPoint x="390" y="650" />
              <mxPoint x="390" y="835" />
            </Array>
          </mxGeometry>
        </mxCell>
        <mxCell id="1DlEPTeBf1zea0rxQoY_-5" style="edgeStyle=orthogonalEdgeStyle;rounded=0;orthogonalLoop=1;jettySize=auto;html=1;entryX=0.75;entryY=0;entryDx=0;entryDy=0;" parent="1" source="3abnYxzULvc83pKUkviv-1" target="1DlEPTeBf1zea0rxQoY_-2" edge="1">
          <mxGeometry relative="1" as="geometry">
            <mxPoint x="-260" y="870" as="targetPoint" />
            <Array as="points">
              <mxPoint x="-30" y="280" />
              <mxPoint x="1745" y="280" />
            </Array>
          </mxGeometry>
        </mxCell>
        <mxCell id="3abnYxzULvc83pKUkviv-1" value="&lt;div&gt;&lt;div&gt;Dim_Product&lt;/div&gt;&lt;div&gt;ProductID(PK)&lt;/div&gt;&lt;div&gt;ProductName&lt;/div&gt;&lt;div&gt;Category&lt;/div&gt;&lt;div&gt;Color&lt;/div&gt;&lt;div&gt;ProductSize&amp;nbsp;&lt;/div&gt;&lt;div&gt;UnitOfMeasure&lt;/div&gt;&lt;/div&gt;&lt;div&gt;productImage&lt;/div&gt;&lt;div&gt;rating&lt;/div&gt;&lt;div&gt;Pricing&lt;/div&gt;" style="whiteSpace=wrap;html=1;align=center;" parent="1" vertex="1">
          <mxGeometry x="-60" y="460" width="120" height="160" as="geometry" />
        </mxCell>
        <mxCell id="3abnYxzULvc83pKUkviv-2" value="&lt;div&gt;&lt;div&gt;Dim_Customer&lt;/div&gt;&lt;div&gt;CustomerID(PK)&lt;/div&gt;&lt;div&gt;CustomerName&amp;nbsp;&amp;nbsp;&lt;/div&gt;&lt;div&gt;Email&amp;nbsp;&lt;/div&gt;&lt;div&gt;Phone no.&amp;nbsp;&lt;/div&gt;&lt;div&gt;Customer Address&lt;/div&gt;&lt;/div&gt;" style="whiteSpace=wrap;html=1;align=center;" parent="1" vertex="1">
          <mxGeometry x="80" y="460" width="120" height="160" as="geometry" />
        </mxCell>
        <mxCell id="3abnYxzULvc83pKUkviv-4" style="edgeStyle=orthogonalEdgeStyle;rounded=0;orthogonalLoop=1;jettySize=auto;html=1;entryX=0.43;entryY=0;entryDx=0;entryDy=0;entryPerimeter=0;" parent="1" source="3abnYxzULvc83pKUkviv-2" target="Nsz1IoEC6ToBLyyu27T0-1" edge="1">
          <mxGeometry relative="1" as="geometry" />
        </mxCell>
        <mxCell id="3abnYxzULvc83pKUkviv-13" value="Dim_Sales&lt;div&gt;SalesID(PK)&lt;br&gt;&lt;div&gt;units_sold&lt;/div&gt;&lt;div&gt;title&lt;/div&gt;&lt;div&gt;tags&lt;/div&gt;&lt;div&gt;price&lt;/div&gt;&lt;div&gt;balance&lt;/div&gt;&lt;div&gt;sales index&lt;/div&gt;&lt;/div&gt;" style="whiteSpace=wrap;html=1;align=center;" parent="1" vertex="1">
          <mxGeometry x="220" y="460" width="90" height="160" as="geometry" />
        </mxCell>
        <mxCell id="3abnYxzULvc83pKUkviv-14" style="edgeStyle=orthogonalEdgeStyle;rounded=0;orthogonalLoop=1;jettySize=auto;html=1;entryX=0.75;entryY=0;entryDx=0;entryDy=0;" parent="1" source="3abnYxzULvc83pKUkviv-13" target="Nsz1IoEC6ToBLyyu27T0-1" edge="1">
          <mxGeometry relative="1" as="geometry">
            <mxPoint x="280" y="780" as="targetPoint" />
            <Array as="points">
              <mxPoint x="270" y="780" />
              <mxPoint x="247" y="780" />
            </Array>
          </mxGeometry>
        </mxCell>
        <mxCell id="3abnYxzULvc83pKUkviv-15" value="Dim_Promotions&lt;div&gt;&lt;div&gt;PromoID(PK)&lt;/div&gt;&lt;div&gt;PromoName&lt;/div&gt;&lt;div&gt;DiscountRate&lt;/div&gt;&lt;div&gt;StartDate&lt;/div&gt;&lt;div&gt;EndDate&lt;/div&gt;&lt;/div&gt;" style="whiteSpace=wrap;html=1;align=center;" parent="1" vertex="1">
          <mxGeometry x="-30" y="1000" width="110" height="110" as="geometry" />
        </mxCell>
        <mxCell id="3abnYxzULvc83pKUkviv-16" style="edgeStyle=orthogonalEdgeStyle;rounded=0;orthogonalLoop=1;jettySize=auto;html=1;entryX=0.372;entryY=1.059;entryDx=0;entryDy=0;entryPerimeter=0;" parent="1" source="3abnYxzULvc83pKUkviv-15" target="Nsz1IoEC6ToBLyyu27T0-1" edge="1">
          <mxGeometry relative="1" as="geometry" />
        </mxCell>
        <mxCell id="3abnYxzULvc83pKUkviv-18" style="edgeStyle=orthogonalEdgeStyle;rounded=0;orthogonalLoop=1;jettySize=auto;html=1;entryX=0.75;entryY=1;entryDx=0;entryDy=0;" parent="1" source="3abnYxzULvc83pKUkviv-17" target="Nsz1IoEC6ToBLyyu27T0-1" edge="1">
          <mxGeometry relative="1" as="geometry" />
        </mxCell>
        <mxCell id="3abnYxzULvc83pKUkviv-17" value="&lt;div&gt;Dim_Return&lt;/div&gt;&lt;div&gt;ReturnID (PK)&lt;/div&gt;&lt;div&gt;&lt;span style=&quot;background-color: transparent; color: light-dark(rgb(0, 0, 0), rgb(255, 255, 255));&quot;&gt;ReturnDateKey&amp;nbsp;&lt;/span&gt;&lt;/div&gt;&lt;div&gt;CustomerID&lt;/div&gt;" style="whiteSpace=wrap;html=1;align=center;" parent="1" vertex="1">
          <mxGeometry x="187.5" y="1080" width="185" height="110" as="geometry" />
        </mxCell>
        <mxCell id="3abnYxzULvc83pKUkviv-19" value="Fact_supplierPerformance&lt;div&gt;Date&lt;/div&gt;&lt;div&gt;SupplierKey&lt;/div&gt;&lt;div&gt;ProductKey&lt;/div&gt;&lt;div&gt;OrderedQuantity&lt;/div&gt;&lt;div&gt;Recieveduantity&lt;/div&gt;&lt;div&gt;QualityDefectsUnits&lt;/div&gt;&lt;div&gt;supplierTypeKey&lt;/div&gt;" style="whiteSpace=wrap;html=1;align=center;" parent="1" vertex="1">
          <mxGeometry x="480" y="810" width="150" height="155" as="geometry" />
        </mxCell>
        <mxCell id="3abnYxzULvc83pKUkviv-22" style="edgeStyle=orthogonalEdgeStyle;rounded=0;orthogonalLoop=1;jettySize=auto;html=1;entryX=1;entryY=0.25;entryDx=0;entryDy=0;" parent="1" source="3abnYxzULvc83pKUkviv-20" target="Nsz1IoEC6ToBLyyu27T0-1" edge="1">
          <mxGeometry relative="1" as="geometry" />
        </mxCell>
        <mxCell id="3abnYxzULvc83pKUkviv-26" style="edgeStyle=orthogonalEdgeStyle;rounded=0;orthogonalLoop=1;jettySize=auto;html=1;" parent="1" source="3abnYxzULvc83pKUkviv-20" target="Nsz1IoEC6ToBLyyu27T0-2" edge="1">
          <mxGeometry relative="1" as="geometry">
            <Array as="points">
              <mxPoint x="490" y="520" />
              <mxPoint x="490" y="730" />
              <mxPoint x="710" y="730" />
              <mxPoint x="710" y="790" />
            </Array>
          </mxGeometry>
        </mxCell>
        <mxCell id="3abnYxzULvc83pKUkviv-33" style="edgeStyle=orthogonalEdgeStyle;rounded=0;orthogonalLoop=1;jettySize=auto;html=1;" parent="1" source="3abnYxzULvc83pKUkviv-20" target="Nsz1IoEC6ToBLyyu27T0-3" edge="1">
          <mxGeometry relative="1" as="geometry">
            <Array as="points">
              <mxPoint x="460" y="1000" />
              <mxPoint x="1200" y="1000" />
              <mxPoint x="1200" y="860" />
            </Array>
          </mxGeometry>
        </mxCell>
        <mxCell id="3abnYxzULvc83pKUkviv-20" value="Dim_Date&lt;div&gt;&lt;div&gt;DateID(PK)&lt;/div&gt;&lt;div&gt;&lt;span style=&quot;white-space: normal;&quot;&gt;Month&lt;/span&gt;&lt;/div&gt;&lt;div&gt;&lt;span style=&quot;white-space: normal;&quot;&gt;Year&lt;/span&gt;&lt;/div&gt;&lt;/div&gt;&lt;div&gt;&lt;span style=&quot;white-space: normal;&quot;&gt;Day&lt;/span&gt;&lt;/div&gt;" style="whiteSpace=wrap;html=1;align=center;" parent="1" vertex="1">
          <mxGeometry x="350" y="460" width="105" height="100" as="geometry" />
        </mxCell>
        <mxCell id="3abnYxzULvc83pKUkviv-21" style="edgeStyle=orthogonalEdgeStyle;rounded=0;orthogonalLoop=1;jettySize=auto;html=1;entryX=0.56;entryY=-0.013;entryDx=0;entryDy=0;entryPerimeter=0;" parent="1" source="3abnYxzULvc83pKUkviv-1" target="Nsz1IoEC6ToBLyyu27T0-2" edge="1">
          <mxGeometry relative="1" as="geometry">
            <Array as="points">
              <mxPoint y="380" />
              <mxPoint x="854" y="380" />
            </Array>
          </mxGeometry>
        </mxCell>
        <mxCell id="3abnYxzULvc83pKUkviv-23" value="&lt;div&gt;Dim_Supplier&lt;/div&gt;&lt;div&gt;&lt;div&gt;SupplierKey&lt;/div&gt;&lt;div&gt;&lt;span style=&quot;white-space: normal;&quot;&gt;Name&lt;/span&gt;&lt;/div&gt;&lt;div&gt;&lt;span style=&quot;white-space: normal;&quot;&gt;Region&lt;/span&gt;&lt;/div&gt;&lt;/div&gt;" style="whiteSpace=wrap;html=1;align=center;" parent="1" vertex="1">
          <mxGeometry x="660" y="450" width="105" height="100" as="geometry" />
        </mxCell>
        <mxCell id="3abnYxzULvc83pKUkviv-24" style="edgeStyle=orthogonalEdgeStyle;rounded=0;orthogonalLoop=1;jettySize=auto;html=1;entryX=0.133;entryY=0;entryDx=0;entryDy=0;entryPerimeter=0;" parent="1" source="3abnYxzULvc83pKUkviv-23" target="Nsz1IoEC6ToBLyyu27T0-2" edge="1">
          <mxGeometry relative="1" as="geometry" />
        </mxCell>
        <mxCell id="3abnYxzULvc83pKUkviv-25" style="edgeStyle=orthogonalEdgeStyle;rounded=0;orthogonalLoop=1;jettySize=auto;html=1;entryX=0.4;entryY=0;entryDx=0;entryDy=0;entryPerimeter=0;" parent="1" source="3abnYxzULvc83pKUkviv-23" target="3abnYxzULvc83pKUkviv-19" edge="1">
          <mxGeometry relative="1" as="geometry" />
        </mxCell>
        <mxCell id="3abnYxzULvc83pKUkviv-31" value="Dim_PerformanceMatrix&lt;div&gt;PerformanceID(PK)&lt;br&gt;&lt;div&gt;ProformanceRating&lt;/div&gt;&lt;div&gt;ReviewDate&lt;/div&gt;&lt;div&gt;ReviewCycle&lt;/div&gt;&lt;div&gt;TargetCovered&lt;/div&gt;&lt;div&gt;EmployeeID(SK)&lt;/div&gt;&lt;/div&gt;" style="whiteSpace=wrap;html=1;align=center;" parent="1" vertex="1">
          <mxGeometry x="1330" y="1010" width="180" height="150" as="geometry" />
        </mxCell>
        <mxCell id="3abnYxzULvc83pKUkviv-32" style="edgeStyle=orthogonalEdgeStyle;rounded=0;orthogonalLoop=1;jettySize=auto;html=1;entryX=0.429;entryY=1;entryDx=0;entryDy=0;entryPerimeter=0;" parent="1" source="3abnYxzULvc83pKUkviv-31" target="Nsz1IoEC6ToBLyyu27T0-3" edge="1">
          <mxGeometry relative="1" as="geometry" />
        </mxCell>
        <mxCell id="3abnYxzULvc83pKUkviv-40" style="edgeStyle=orthogonalEdgeStyle;rounded=0;orthogonalLoop=1;jettySize=auto;html=1;entryX=0.194;entryY=-0.012;entryDx=0;entryDy=0;entryPerimeter=0;" parent="1" source="3abnYxzULvc83pKUkviv-20" target="3abnYxzULvc83pKUkviv-19" edge="1">
          <mxGeometry relative="1" as="geometry" />
        </mxCell>
        <mxCell id="1DlEPTeBf1zea0rxQoY_-2" value="Fact_CusFeedBack&lt;div&gt;FeedBackKey&lt;/div&gt;&lt;div&gt;PriductKey&lt;/div&gt;&lt;div&gt;Date&lt;/div&gt;&lt;div&gt;AverageRate&lt;/div&gt;" style="whiteSpace=wrap;html=1;align=center;" parent="1" vertex="1">
          <mxGeometry x="1640" y="780" width="140" height="120" as="geometry" />
        </mxCell>
        <mxCell id="1DlEPTeBf1zea0rxQoY_-4" style="edgeStyle=orthogonalEdgeStyle;rounded=0;orthogonalLoop=1;jettySize=auto;html=1;entryX=0.5;entryY=0;entryDx=0;entryDy=0;" parent="1" source="1DlEPTeBf1zea0rxQoY_-3" target="1DlEPTeBf1zea0rxQoY_-2" edge="1">
          <mxGeometry relative="1" as="geometry" />
        </mxCell>
        <mxCell id="1DlEPTeBf1zea0rxQoY_-3" value="&lt;div&gt;Dim_FeedBack&lt;/div&gt;&lt;div&gt;FeedBackKey&lt;/div&gt;&lt;div&gt;CustomerID&lt;/div&gt;&lt;div&gt;ProductID&lt;/div&gt;&lt;div&gt;Rating&lt;/div&gt;&lt;div&gt;FeedbackComment&lt;/div&gt;&lt;div&gt;FeedbackDate&lt;/div&gt;&lt;div&gt;Sentiment&lt;/div&gt;" style="whiteSpace=wrap;html=1;align=center;" parent="1" vertex="1">
          <mxGeometry x="1560" y="480" width="150" height="200" as="geometry" />
        </mxCell>
        <mxCell id="1DlEPTeBf1zea0rxQoY_-6" style="edgeStyle=orthogonalEdgeStyle;rounded=0;orthogonalLoop=1;jettySize=auto;html=1;entryX=0.404;entryY=1.033;entryDx=0;entryDy=0;entryPerimeter=0;" parent="1" source="3abnYxzULvc83pKUkviv-20" target="1DlEPTeBf1zea0rxQoY_-2" edge="1">
          <mxGeometry relative="1" as="geometry">
            <Array as="points">
              <mxPoint x="417" y="1210" />
              <mxPoint x="1697" y="1210" />
            </Array>
          </mxGeometry>
        </mxCell>
        <mxCell id="4ICp18lcvIGxHicSxw5o-1" value="&lt;div&gt;Dim_SupplierType&lt;/div&gt;&lt;div&gt;&lt;div&gt;SupplierTypeID(PK)&lt;/div&gt;&lt;/div&gt;&lt;div&gt;Name&lt;/div&gt;" style="whiteSpace=wrap;html=1;align=center;" parent="1" vertex="1">
          <mxGeometry x="900" y="550" width="110" height="100" as="geometry" />
        </mxCell>
        <mxCell id="4ICp18lcvIGxHicSxw5o-2" style="edgeStyle=orthogonalEdgeStyle;rounded=0;orthogonalLoop=1;jettySize=auto;html=1;" parent="1" source="4ICp18lcvIGxHicSxw5o-1" target="3abnYxzULvc83pKUkviv-19" edge="1">
          <mxGeometry relative="1" as="geometry">
            <Array as="points">
              <mxPoint x="955" y="980" />
              <mxPoint x="825" y="980" />
              <mxPoint x="825" y="960" />
            </Array>
          </mxGeometry>
        </mxCell>
        <mxCell id="6RMni56ttawG6uvNeTiY-4" value="" style="rounded=0;whiteSpace=wrap;html=1;fillColor=none;strokeColor=#FF0000;" parent="1" vertex="1">
          <mxGeometry x="1080" y="207.5" width="450" height="1190" as="geometry" />
        </mxCell>
        <mxCell id="6RMni56ttawG6uvNeTiY-5" value="" style="rounded=0;whiteSpace=wrap;html=1;fillColor=none;strokeColor=#FF0000;" parent="1" vertex="1">
          <mxGeometry x="1550" y="210" width="450" height="1187.5" as="geometry" />
        </mxCell>
        <mxCell id="6RMni56ttawG6uvNeTiY-6" value="" style="rounded=0;whiteSpace=wrap;html=1;fillColor=none;strokeColor=#FF0000;" parent="1" vertex="1">
          <mxGeometry x="660" y="207.5" width="390" height="1190" as="geometry" />
        </mxCell>
        <mxCell id="6RMni56ttawG6uvNeTiY-7" value="" style="rounded=0;whiteSpace=wrap;html=1;fillColor=none;strokeColor=#FF0000;" parent="1" vertex="1">
          <mxGeometry x="-120" y="207.5" width="590" height="1190" as="geometry" />
        </mxCell>
        <mxCell id="6RMni56ttawG6uvNeTiY-8" value="&lt;font style=&quot;font-size: 24px;&quot;&gt;SQL&lt;/font&gt;" style="text;html=1;align=center;verticalAlign=middle;whiteSpace=wrap;rounded=0;" parent="1" vertex="1">
          <mxGeometry x="110" y="1420" width="60" height="30" as="geometry" />
        </mxCell>
        <mxCell id="6RMni56ttawG6uvNeTiY-9" value="&lt;font style=&quot;font-size: 24px;&quot;&gt;Excel&lt;/font&gt;" style="text;html=1;align=center;verticalAlign=middle;whiteSpace=wrap;rounded=0;" parent="1" vertex="1">
          <mxGeometry x="815" y="1420" width="60" height="30" as="geometry" />
        </mxCell>
        <mxCell id="6RMni56ttawG6uvNeTiY-10" value="&lt;font style=&quot;font-size: 24px;&quot;&gt;MongoDB&lt;/font&gt;" style="text;html=1;align=center;verticalAlign=middle;whiteSpace=wrap;rounded=0;" parent="1" vertex="1">
          <mxGeometry x="1270" y="1420" width="60" height="30" as="geometry" />
        </mxCell>
        <mxCell id="6RMni56ttawG6uvNeTiY-11" value="&lt;font style=&quot;font-size: 24px;&quot;&gt;CSV&lt;/font&gt;" style="text;html=1;align=center;verticalAlign=middle;whiteSpace=wrap;rounded=0;" parent="1" vertex="1">
          <mxGeometry x="1740" y="1420" width="60" height="30" as="geometry" />
        </mxCell>
      </root>
    </mxGraphModel>
  </diagram>
</mxfile>
